<svg width="207" height="35" viewBox="0 0 207 35" fill="none" xmlns="http://www.w3.org/2000/svg">
<path d="M39.3571 16V6.9H45.7791L45.7661 8.616H40.9561L41.4371 8.135L41.4501 16H39.3571ZM44.2588 16L48.3148 6.9H50.3948L54.4638 16H52.2538L48.9258 7.966H49.7578L46.4168 16H44.2588ZM46.2868 14.05L46.8458 12.451H51.5258L52.0978 14.05H46.2868ZM61.7533 15.064V8.616H58.6333L58.5943 9.942C58.5683 10.5053 58.5293 11.0383 58.4773 11.541C58.434 12.0437 58.3647 12.503 58.2693 12.919C58.174 13.3263 58.0483 13.673 57.8923 13.959C57.745 14.245 57.5587 14.4487 57.3333 14.57L55.0843 14.284C55.3963 14.2927 55.652 14.1843 55.8513 13.959C56.0593 13.7337 56.224 13.4173 56.3453 13.01C56.4667 12.594 56.5533 12.1087 56.6053 11.554C56.666 10.9993 56.7093 10.397 56.7353 9.747L56.8393 6.9H63.8333V15.064H61.7533ZM54.7853 17.885L54.7983 14.284H65.1073V17.885H63.1573V16H56.7353V17.885H54.7853ZM76.821 16L74.377 11.619L76.158 10.592L79.252 16H76.821ZM72.83 12.334V10.579H75.664V12.334H72.83ZM76.275 11.684L74.325 11.45L76.86 6.9H79.083L76.275 11.684ZM67.994 16H65.563L68.657 10.592L70.438 11.619L67.994 16ZM73.454 16H71.387V6.9H73.454V16ZM71.998 12.334H69.151V10.579H71.998V12.334ZM68.553 11.684L65.732 6.9H67.955L70.477 11.45L68.553 11.684ZM82.1984 10.566H86.5794V12.204H82.1984V10.566ZM82.3544 14.31H87.3074V16H80.2614V6.9H87.1384V8.59H82.3544V14.31ZM90.9714 16V8.135L91.4524 8.616H88.0724V6.9H95.9634V8.616H92.5834L93.0514 8.135V16H90.9714ZM95.8018 16L99.8578 6.9H101.938L106.007 16H103.797L100.469 7.966H101.301L97.9598 16H95.8018ZM97.8298 14.05L98.3888 12.451H103.069L103.641 14.05H97.8298ZM107.214 16V6.9H111.153C111.967 6.9 112.669 7.03433 113.259 7.303C113.848 7.563 114.303 7.94 114.624 8.434C114.944 8.928 115.105 9.51733 115.105 10.202C115.105 10.878 114.944 11.463 114.624 11.957C114.303 12.451 113.848 12.8323 113.259 13.101C112.669 13.361 111.967 13.491 111.153 13.491H108.384L109.32 12.542V16H107.214ZM109.32 12.776L108.384 11.775H111.036C111.686 11.775 112.171 11.6363 112.492 11.359C112.812 11.0817 112.973 10.696 112.973 10.202C112.973 9.69933 112.812 9.30933 112.492 9.032C112.171 8.75467 111.686 8.616 111.036 8.616H108.384L109.32 7.615V12.776ZM116.494 16V6.9H118.587V12.828L122.929 6.9H124.905V16H122.825V10.085L118.483 16H116.494ZM127.483 14.284C127.985 14.4313 128.406 14.4747 128.744 14.414C129.09 14.3447 129.398 14.102 129.667 13.686L130.109 13.023L130.304 12.802L133.32 6.9H135.387L131.513 14.102C131.166 14.752 130.754 15.2503 130.278 15.597C129.81 15.9437 129.294 16.1387 128.731 16.182C128.167 16.234 127.582 16.1343 126.976 15.883L127.483 14.284ZM130.265 14.557L126.157 6.9H128.406L131.422 13.01L130.265 14.557ZM136.387 16V6.9H138.129L142.003 13.322H141.08L144.889 6.9H146.631L146.644 16H144.668L144.655 9.929H145.032L141.977 15.038H141.041L137.921 9.929H138.363V16H136.387Z" fill="#0C76D8"/>
<path d="M39.298 32V24.3H39.969L43.489 30.306H43.137L46.624 24.3H47.295V32H46.514V25.521H46.701L43.489 31.021H43.104L39.87 25.521H40.079V32H39.298ZM53.2888 32V30.724L53.2558 30.515V28.381C53.2558 27.8897 53.1165 27.512 52.8378 27.248C52.5665 26.984 52.1595 26.852 51.6168 26.852C51.2428 26.852 50.8871 26.9143 50.5498 27.039C50.2125 27.1637 49.9265 27.3287 49.6918 27.534L49.3398 26.951C49.6331 26.7017 49.9851 26.511 50.3958 26.379C50.8065 26.2397 51.2391 26.17 51.6938 26.17C52.4418 26.17 53.0175 26.357 53.4208 26.731C53.8315 27.0977 54.0368 27.6587 54.0368 28.414V32H53.2888ZM51.2978 32.055C50.8651 32.055 50.4875 31.9853 50.1648 31.846C49.8495 31.6993 49.6075 31.5013 49.4388 31.252C49.2701 30.9953 49.1858 30.702 49.1858 30.372C49.1858 30.0713 49.2555 29.8 49.3948 29.558C49.5415 29.3087 49.7761 29.1107 50.0988 28.964C50.4288 28.81 50.8688 28.733 51.4188 28.733H53.4098V29.316H51.4408C50.8835 29.316 50.4948 29.415 50.2748 29.613C50.0621 29.811 49.9558 30.0567 49.9558 30.35C49.9558 30.68 50.0841 30.944 50.3408 31.142C50.5975 31.34 50.9568 31.439 51.4188 31.439C51.8588 31.439 52.2365 31.34 52.5518 31.142C52.8745 30.9367 53.1091 30.6433 53.2558 30.262L53.4318 30.801C53.2851 31.1823 53.0285 31.4867 52.6618 31.714C52.3025 31.9413 51.8478 32.055 51.2978 32.055ZM56.1159 32V26.225H60.2079V26.907H56.6989L56.8969 26.709V32H56.1159ZM64.9226 32V30.724L64.8896 30.515V28.381C64.8896 27.8897 64.7503 27.512 64.4716 27.248C64.2003 26.984 63.7933 26.852 63.2506 26.852C62.8766 26.852 62.5209 26.9143 62.1836 27.039C61.8463 27.1637 61.5603 27.3287 61.3256 27.534L60.9736 26.951C61.2669 26.7017 61.6189 26.511 62.0296 26.379C62.4403 26.2397 62.8729 26.17 63.3276 26.17C64.0756 26.17 64.6513 26.357 65.0546 26.731C65.4653 27.0977 65.6706 27.6587 65.6706 28.414V32H64.9226ZM62.9316 32.055C62.4989 32.055 62.1213 31.9853 61.7986 31.846C61.4833 31.6993 61.2413 31.5013 61.0726 31.252C60.9039 30.9953 60.8196 30.702 60.8196 30.372C60.8196 30.0713 60.8893 29.8 61.0286 29.558C61.1753 29.3087 61.4099 29.1107 61.7326 28.964C62.0626 28.81 62.5026 28.733 63.0526 28.733H65.0436V29.316H63.0746C62.5173 29.316 62.1286 29.415 61.9086 29.613C61.6959 29.811 61.5896 30.0567 61.5896 30.35C61.5896 30.68 61.7179 30.944 61.9746 31.142C62.2313 31.34 62.5906 31.439 63.0526 31.439C63.4926 31.439 63.8703 31.34 64.1856 31.142C64.5083 30.9367 64.7429 30.6433 64.8896 30.262L65.0656 30.801C64.9189 31.1823 64.6623 31.4867 64.2956 31.714C63.9363 31.9413 63.4816 32.055 62.9316 32.055ZM69.1825 32.066C69.6592 32.066 70.0882 31.9927 70.4695 31.846C70.8582 31.6993 71.1662 31.4977 71.3935 31.241C71.6208 30.977 71.7345 30.6727 71.7345 30.328C71.7345 29.888 71.5475 29.5397 71.1735 29.283C70.8068 29.0263 70.2935 28.898 69.6335 28.898L69.6005 29.107C69.9745 29.107 70.3082 29.0483 70.6015 28.931C70.8948 28.8137 71.1295 28.6487 71.3055 28.436C71.4815 28.2233 71.5695 27.974 71.5695 27.688C71.5695 27.3653 71.4595 27.0903 71.2395 26.863C71.0195 26.6283 70.7225 26.4487 70.3485 26.324C69.9818 26.1993 69.5675 26.1443 69.1055 26.159C68.7682 26.159 68.4308 26.2067 68.0935 26.302C67.7635 26.39 67.4298 26.522 67.0925 26.698L67.3125 27.303C67.6132 27.149 67.9175 27.0353 68.2255 26.962C68.5335 26.8813 68.8305 26.8373 69.1165 26.83C69.4318 26.83 69.7142 26.8667 69.9635 26.94C70.2128 27.0133 70.4072 27.1233 70.5465 27.27C70.6932 27.4167 70.7665 27.5927 70.7665 27.798C70.7665 27.9887 70.7042 28.1537 70.5795 28.293C70.4622 28.4323 70.2935 28.5387 70.0735 28.612C69.8535 28.6853 69.6005 28.722 69.3145 28.722H68.3795V29.294H69.3695C69.8535 29.294 70.2348 29.382 70.5135 29.558C70.7922 29.7267 70.9315 29.965 70.9315 30.273C70.9315 30.4857 70.8582 30.6763 70.7115 30.845C70.5648 31.0137 70.3595 31.1457 70.0955 31.241C69.8315 31.3363 69.5198 31.3877 69.1605 31.395C68.8012 31.395 68.4382 31.3437 68.0715 31.241C67.7048 31.131 67.3822 30.9733 67.1035 30.768L66.8505 31.351C67.1658 31.593 67.5288 31.7727 67.9395 31.89C68.3502 32.0073 68.7645 32.066 69.1825 32.066ZM73.5075 32V26.225H74.2885V30.812L78.1495 26.225H78.8425V32H78.0615V27.402L74.2115 32H73.5075ZM81.0807 32V26.225H81.8617V28.777H85.5027V26.225H86.2837V32H85.5027V29.448H81.8617V32H81.0807ZM91.3825 32V26.225H92.1635V31.318H95.6945V26.225H96.4755V32H91.3825ZM96.6735 33.397V31.934L96.8715 32H95.6945V31.318H97.4105V33.397H96.6735ZM98.902 32V26.225H99.683V30.812L103.544 26.225H104.237V32H103.456V27.402L99.606 32H98.902ZM109.72 32.066C109.72 32.066 109.706 32.066 109.676 32.066C109.647 32.066 109.618 32.066 109.588 32.066C109.566 32.066 109.548 32.066 109.533 32.066C108.389 32.0587 107.498 31.7983 106.86 31.285C106.222 30.7717 105.903 30.042 105.903 29.096C105.903 28.1647 106.222 27.446 106.86 26.94C107.506 26.4267 108.411 26.1663 109.577 26.159C109.585 26.159 109.599 26.159 109.621 26.159C109.651 26.159 109.676 26.159 109.698 26.159C109.72 26.159 109.735 26.159 109.742 26.159C110.916 26.1663 111.829 26.4267 112.481 26.94C113.134 27.446 113.46 28.1647 113.46 29.096C113.46 30.0493 113.13 30.7827 112.47 31.296C111.818 31.8093 110.901 32.066 109.72 32.066ZM109.709 31.384C110.362 31.384 110.908 31.296 111.348 31.12C111.788 30.9367 112.122 30.6763 112.349 30.339C112.577 30.0017 112.69 29.5873 112.69 29.096C112.69 28.6193 112.577 28.216 112.349 27.886C112.122 27.5487 111.788 27.292 111.348 27.116C110.908 26.94 110.362 26.852 109.709 26.852C109.702 26.852 109.68 26.852 109.643 26.852C109.614 26.852 109.596 26.852 109.588 26.852C108.95 26.852 108.415 26.9437 107.982 27.127C107.55 27.303 107.223 27.556 107.003 27.886C106.783 28.216 106.673 28.6193 106.673 29.096C106.673 29.58 106.783 29.9907 107.003 30.328C107.231 30.6653 107.561 30.9257 107.993 31.109C108.426 31.285 108.958 31.3767 109.588 31.384C109.603 31.384 109.625 31.384 109.654 31.384C109.684 31.384 109.702 31.384 109.709 31.384ZM109.291 34.134V23.838H110.05V34.134H109.291ZM118.093 32.055C117.594 32.055 117.143 31.9413 116.74 31.714C116.337 31.4793 116.014 31.1457 115.772 30.713C115.537 30.273 115.42 29.7377 115.42 29.107C115.42 28.4763 115.537 27.9447 115.772 27.512C116.007 27.072 116.326 26.7383 116.729 26.511C117.132 26.2837 117.587 26.17 118.093 26.17C118.643 26.17 119.134 26.2947 119.567 26.544C120.007 26.786 120.352 27.1307 120.601 27.578C120.85 28.018 120.975 28.5277 120.975 29.107C120.975 29.6937 120.85 30.207 120.601 30.647C120.352 31.087 120.007 31.4317 119.567 31.681C119.134 31.9303 118.643 32.055 118.093 32.055ZM115.112 34.134V26.225H115.86V27.963L115.783 29.118L115.893 30.284V34.134H115.112ZM118.038 31.362C118.449 31.362 118.815 31.2703 119.138 31.087C119.461 30.8963 119.717 30.6323 119.908 30.295C120.099 29.9503 120.194 29.5543 120.194 29.107C120.194 28.6597 120.099 28.2673 119.908 27.93C119.717 27.5927 119.461 27.3287 119.138 27.138C118.815 26.9473 118.449 26.852 118.038 26.852C117.627 26.852 117.257 26.9473 116.927 27.138C116.604 27.3287 116.348 27.5927 116.157 27.93C115.974 28.2673 115.882 28.6597 115.882 29.107C115.882 29.5543 115.974 29.9503 116.157 30.295C116.348 30.6323 116.604 30.8963 116.927 31.087C117.257 31.2703 117.627 31.362 118.038 31.362ZM125.029 32.055C124.472 32.055 123.969 31.9303 123.522 31.681C123.082 31.4243 122.734 31.076 122.477 30.636C122.22 30.1887 122.092 29.679 122.092 29.107C122.092 28.5277 122.22 28.018 122.477 27.578C122.734 27.138 123.082 26.7933 123.522 26.544C123.962 26.2947 124.464 26.17 125.029 26.17C125.601 26.17 126.107 26.2947 126.547 26.544C126.994 26.7933 127.343 27.138 127.592 27.578C127.849 28.018 127.977 28.5277 127.977 29.107C127.977 29.679 127.849 30.1887 127.592 30.636C127.343 31.076 126.994 31.4243 126.547 31.681C126.1 31.9303 125.594 32.055 125.029 32.055ZM125.029 31.362C125.447 31.362 125.817 31.2703 126.14 31.087C126.463 30.8963 126.716 30.6323 126.899 30.295C127.09 29.9503 127.185 29.5543 127.185 29.107C127.185 28.6523 127.09 28.2563 126.899 27.919C126.716 27.5817 126.463 27.3213 126.14 27.138C125.817 26.9473 125.451 26.852 125.04 26.852C124.629 26.852 124.263 26.9473 123.94 27.138C123.617 27.3213 123.361 27.5817 123.17 27.919C122.979 28.2563 122.884 28.6523 122.884 29.107C122.884 29.5543 122.979 29.9503 123.17 30.295C123.361 30.6323 123.617 30.8963 123.94 31.087C124.263 31.2703 124.626 31.362 125.029 31.362ZM129.646 32V26.225H132.198C132.851 26.225 133.364 26.3497 133.738 26.599C134.119 26.8483 134.31 27.215 134.31 27.699C134.31 28.1683 134.13 28.5313 133.771 28.788C133.412 29.0373 132.939 29.162 132.352 29.162L132.506 28.931C133.195 28.931 133.701 29.0593 134.024 29.316C134.347 29.5727 134.508 29.943 134.508 30.427C134.508 30.9257 134.325 31.3143 133.958 31.593C133.599 31.8643 133.038 32 132.275 32H129.646ZM130.405 31.384H132.242C132.733 31.384 133.104 31.307 133.353 31.153C133.61 30.9917 133.738 30.735 133.738 30.383C133.738 30.031 133.624 29.7743 133.397 29.613C133.17 29.4517 132.81 29.371 132.319 29.371H130.405V31.384ZM130.405 28.788H132.143C132.59 28.788 132.931 28.7037 133.166 28.535C133.408 28.3663 133.529 28.1207 133.529 27.798C133.529 27.4753 133.408 27.2333 133.166 27.072C132.931 26.9107 132.59 26.83 132.143 26.83H130.405V28.788ZM141.971 32V26.225H142.752V32H141.971ZM138.77 28.26C139.496 28.2673 140.049 28.4287 140.431 28.744C140.812 29.0593 141.003 29.514 141.003 30.108C141.003 30.724 140.797 31.197 140.387 31.527C139.976 31.857 139.389 32.0183 138.627 32.011L136.339 32V26.225H137.12V28.238L138.77 28.26ZM138.572 31.417C139.114 31.4243 139.521 31.318 139.793 31.098C140.071 30.8707 140.211 30.5407 140.211 30.108C140.211 29.6753 140.075 29.36 139.804 29.162C139.532 28.9567 139.122 28.8503 138.572 28.843L137.12 28.821V31.395L138.572 31.417ZM144.029 32L146.471 28.832L146.46 29.217L144.139 26.225H145.019L146.922 28.7L146.592 28.689L148.495 26.225H149.353L147.01 29.25L147.021 28.832L149.485 32H148.594L146.581 29.36L146.889 29.404L144.909 32H144.029ZM156.625 32.055C156.127 32.055 155.676 31.9413 155.272 31.714C154.869 31.4793 154.546 31.1457 154.304 30.713C154.07 30.273 153.952 29.7377 153.952 29.107C153.952 28.4763 154.07 27.9447 154.304 27.512C154.539 27.072 154.858 26.7383 155.261 26.511C155.665 26.2837 156.119 26.17 156.625 26.17C157.175 26.17 157.667 26.2947 158.099 26.544C158.539 26.786 158.884 27.1307 159.133 27.578C159.383 28.018 159.507 28.5277 159.507 29.107C159.507 29.6937 159.383 30.207 159.133 30.647C158.884 31.087 158.539 31.4317 158.099 31.681C157.667 31.9303 157.175 32.055 156.625 32.055ZM153.644 34.134V26.225H154.392V27.963L154.315 29.118L154.425 30.284V34.134H153.644ZM156.57 31.362C156.981 31.362 157.348 31.2703 157.67 31.087C157.993 30.8963 158.25 30.6323 158.44 30.295C158.631 29.9503 158.726 29.5543 158.726 29.107C158.726 28.6597 158.631 28.2673 158.44 27.93C158.25 27.5927 157.993 27.3287 157.67 27.138C157.348 26.9473 156.981 26.852 156.57 26.852C156.16 26.852 155.789 26.9473 155.459 27.138C155.137 27.3287 154.88 27.5927 154.689 27.93C154.506 28.2673 154.414 28.6597 154.414 29.107C154.414 29.5543 154.506 29.9503 154.689 30.295C154.88 30.6323 155.137 30.8963 155.459 31.087C155.789 31.2703 156.16 31.362 156.57 31.362ZM163.66 32.055C163.059 32.055 162.531 31.9303 162.076 31.681C161.622 31.4243 161.266 31.076 161.009 30.636C160.753 30.1887 160.624 29.679 160.624 29.107C160.624 28.535 160.745 28.029 160.987 27.589C161.237 27.149 161.574 26.8043 161.999 26.555C162.432 26.2983 162.916 26.17 163.451 26.17C163.994 26.17 164.474 26.2947 164.892 26.544C165.318 26.786 165.651 27.1307 165.893 27.578C166.135 28.018 166.256 28.5277 166.256 29.107C166.256 29.1437 166.253 29.184 166.245 29.228C166.245 29.2647 166.245 29.305 166.245 29.349H161.218V28.766H165.827L165.519 28.997C165.519 28.579 165.428 28.2087 165.244 27.886C165.068 27.556 164.826 27.2993 164.518 27.116C164.21 26.9327 163.855 26.841 163.451 26.841C163.055 26.841 162.7 26.9327 162.384 27.116C162.069 27.2993 161.823 27.556 161.647 27.886C161.471 28.216 161.383 28.5937 161.383 29.019V29.14C161.383 29.58 161.479 29.9687 161.669 30.306C161.867 30.636 162.139 30.8963 162.483 31.087C162.835 31.2703 163.235 31.362 163.682 31.362C164.034 31.362 164.361 31.2997 164.661 31.175C164.969 31.0503 165.233 30.8597 165.453 30.603L165.893 31.109C165.637 31.417 165.314 31.6517 164.925 31.813C164.544 31.9743 164.122 32.055 163.66 32.055ZM171.78 31.318L171.604 31.527V26.225H172.385V31.527L172.176 31.318H175.399L175.19 31.527V26.225H175.971V32H167.985V26.225H168.766V31.527L168.568 31.318H171.78ZM180.665 32.055C180.064 32.055 179.536 31.9303 179.081 31.681C178.626 31.4243 178.271 31.076 178.014 30.636C177.757 30.1887 177.629 29.679 177.629 29.107C177.629 28.535 177.75 28.029 177.992 27.589C178.241 27.149 178.579 26.8043 179.004 26.555C179.437 26.2983 179.921 26.17 180.456 26.17C180.999 26.17 181.479 26.2947 181.897 26.544C182.322 26.786 182.656 27.1307 182.898 27.578C183.14 28.018 183.261 28.5277 183.261 29.107C183.261 29.1437 183.257 29.184 183.25 29.228C183.25 29.2647 183.25 29.305 183.25 29.349H178.223V28.766H182.832L182.524 28.997C182.524 28.579 182.432 28.2087 182.249 27.886C182.073 27.556 181.831 27.2993 181.523 27.116C181.215 26.9327 180.859 26.841 180.456 26.841C180.06 26.841 179.704 26.9327 179.389 27.116C179.074 27.2993 178.828 27.556 178.652 27.886C178.476 28.216 178.388 28.5937 178.388 29.019V29.14C178.388 29.58 178.483 29.9687 178.674 30.306C178.872 30.636 179.143 30.8963 179.488 31.087C179.84 31.2703 180.24 31.362 180.687 31.362C181.039 31.362 181.365 31.2997 181.666 31.175C181.974 31.0503 182.238 30.8597 182.458 30.603L182.898 31.109C182.641 31.417 182.319 31.6517 181.93 31.813C181.549 31.9743 181.127 32.055 180.665 32.055ZM184.99 32V26.225H185.771V28.777H189.412V26.225H190.193V32H189.412V29.448H185.771V32H184.99ZM192.413 32V26.225H193.194V30.812L197.055 26.225H197.748V32H196.967V27.402L193.117 32H192.413ZM199.986 32V26.225H200.767V30.812L204.628 26.225H205.321V32H204.54V27.402L200.69 32H199.986ZM202.604 25.389C202.12 25.389 201.728 25.268 201.427 25.026C201.134 24.7767 200.98 24.421 200.965 23.959H201.526C201.533 24.2523 201.636 24.4833 201.834 24.652C202.032 24.8207 202.289 24.905 202.604 24.905C202.919 24.905 203.176 24.8207 203.374 24.652C203.579 24.4833 203.686 24.2523 203.693 23.959H204.254C204.247 24.421 204.093 24.7767 203.792 25.026C203.491 25.268 203.095 25.389 202.604 25.389Z" fill="#2A2D46"/>
<g clip-path="url(#clip0_29_7)">
<path d="M17.3775 8.09796C16.5506 8.09796 15.8767 9.43277 15.8767 11.0872C15.8767 12.7348 16.5506 14.0757 17.3775 14.0757C18.1989 14.0757 18.8714 12.7348 18.8714 11.0872C18.8707 9.43277 18.1982 8.09796 17.3775 8.09796Z" fill="#0C76D8"/>
<path d="M12.3896 3.97248C15.4034 3.97248 16.624 4.20028 16.624 6.45647H18.1248C18.1248 2.47787 14.8098 2.47787 12.3903 2.47787C9.38337 2.47787 8.15596 2.25619 8.15596 0H6.66064C6.66064 3.97248 9.97632 3.97248 12.3896 3.97248Z" fill="#0C76D8"/>
<path d="M20.1416 6.45647C20.2837 6.88623 20.3667 7.35066 20.3667 7.83753V14.33C20.3667 16.1531 19.3045 17.6688 17.9133 17.9931C17.916 18.0142 17.9275 18.0332 17.9275 18.0611V23.2766C17.9275 23.5792 17.6807 23.8274 17.372 23.8274C17.0694 23.8274 16.8219 23.5792 16.8219 23.2766V18.0611C16.8219 18.0332 16.8348 18.0149 16.8368 17.9931C15.4455 17.6688 14.3827 16.1531 14.3827 14.33V7.83753C14.3827 7.35134 14.465 6.88623 14.6078 6.45647C10.489 7.54173 7.4093 11.2769 7.4093 15.726V24.3728C7.40862 29.6678 11.7409 34 17.0347 34H17.714C23.0085 34 27.3401 29.6678 27.3401 24.3728V15.726C27.3401 11.2769 24.2597 7.54173 20.1416 6.45647Z" fill="#0C76D8"/>
</g>
<defs>
<clipPath id="clip0_29_7">
<rect width="34" height="34" fill="white"/>
</clipPath>
</defs>
</svg>
